<?xml version="1.0" encoding="utf-8"?>
<!-- Generator: Adobe Illustrator 17.0.0, SVG Export Plug-In . SVG Version: 6.00 Build 0)  -->
<!DOCTYPE svg PUBLIC "-//W3C//DTD SVG 1.1//EN" "http://www.w3.org/Graphics/SVG/1.1/DTD/svg11.dtd">
<svg version="1.1" id="Calque_1" xmlns="http://www.w3.org/2000/svg" xmlns:xlink="http://www.w3.org/1999/xlink" x="0px" y="0px"
	 width="100px" height="100px" viewBox="0 0 100 100" enable-background="new 0 0 100 100" xml:space="preserve">
<circle fill="#0000CD" stroke="#0000CD" stroke-miterlimit="10" cx="49.875" cy="49.961" r="49.005"/>
<g>
	<path fill="#FFFFFF" d="M46.195,76.692H31.586v-32.5c0-5.963,1.562-10.82,4.688-14.57c1.797-2.161,4.082-3.88,6.855-5.156
		c2.773-1.275,5.618-1.914,8.535-1.914c5.807,0,10.703,1.953,14.688,5.859s5.977,8.698,5.977,14.375
		c0,5.521-1.979,10.287-5.938,14.297c-3.959,4.011-8.646,6.016-14.062,6.016c-0.886,0-2.188-0.092-3.906-0.273V46.731
		c1.197,0.964,2.396,1.445,3.594,1.445c1.51,0,2.806-0.56,3.887-1.68c1.08-1.119,1.621-2.447,1.621-3.984
		c0-1.536-0.561-2.845-1.68-3.926c-1.12-1.08-2.461-1.621-4.023-1.621c-3.75,0-5.625,2.592-5.625,7.773V76.692z"/>
</g>
</svg>
