<?xml version="1.0" encoding="utf-8"?>
<!-- Generator: Adobe Illustrator 17.0.0, SVG Export Plug-In . SVG Version: 6.00 Build 0)  -->
<!DOCTYPE svg PUBLIC "-//W3C//DTD SVG 1.1//EN" "http://www.w3.org/Graphics/SVG/1.1/DTD/svg11.dtd">
<svg version="1.1" id="Calque_1" xmlns="http://www.w3.org/2000/svg" xmlns:xlink="http://www.w3.org/1999/xlink" x="0px" y="0px"
	 width="800px" height="800px" viewBox="0 0 800 800" enable-background="new 0 0 800 800" xml:space="preserve">
<g>
	<path fill="#FFFFFF" d="M364.45,652.59H231.505v-295.75c0-54.265,14.219-98.465,42.656-132.59
		c16.352-19.667,37.146-35.308,62.384-46.922c25.238-11.608,51.127-17.418,77.669-17.418c52.844,0,97.398,17.773,133.656,53.32
		s54.387,79.153,54.387,130.812c0,50.243-18.012,93.611-54.031,130.102c-36.023,36.496-78.68,54.742-127.969,54.742
		c-8.059,0-19.906-0.833-35.546-2.488V379.945c10.898,8.77,21.8,13.152,32.703,13.152c13.742,0,25.533-5.093,35.369-15.285
		c9.832-10.187,14.752-22.272,14.752-36.258c0-13.98-5.098-25.888-15.285-35.725c-10.191-9.831-22.395-14.752-36.613-14.752
		c-34.125,0-51.187,23.583-51.187,70.738V652.59z"/>
</g>
<g>
</g>
<g>
</g>
<g>
</g>
<g>
</g>
<g>
</g>
<g>
</g>
<g>
</g>
<g>
</g>
<g>
</g>
<g>
</g>
<g>
</g>
<g>
</g>
<g>
</g>
<g>
</g>
<g>
</g>
</svg>
